<svg width="600" height="220" fill="none" xmlns="http://www.w3.org/2000/svg"><circle cx="165.9" cy="129.442" r="20.83" transform="rotate(56 165.9 129.442)" fill="#084EE8"/><path d="M185.509 136.629a16.923 16.923 0 1 0-18.928-28.062l9.464 14.031 9.464 14.031Z" fill="#000"/><path stroke="#000" stroke-width=".822" d="m176.275 122.939-27.414 18.491"/><circle cx="158.996" cy="121.535" r="5.208" transform="rotate(56 158.996 121.535)" fill="#000"/><circle cx="170.644" cy="138.804" r="5.208" transform="rotate(56 170.644 138.804)" fill="#000"/><mask id="a" fill="#fff"><path d="M190.485 115.734c4.094-2.676 8.697-4.738 13.333-5.974 4.636-1.237 9.137-1.602 13.038-1.058 3.901.543 7.06 1.976 9.15 4.15 2.091 2.173 3.037 5.009 2.741 8.214l-1.115.28c.283-3.067-.623-5.781-2.623-7.862-2.001-2.08-5.025-3.451-8.758-3.972-3.734-.52-8.041-.17-12.479 1.013-4.437 1.183-8.842 3.157-12.761 5.718l-.526-.509Z"/></mask><path d="M190.485 115.734c4.094-2.676 8.697-4.738 13.333-5.974 4.636-1.237 9.137-1.602 13.038-1.058 3.901.543 7.06 1.976 9.15 4.15 2.091 2.173 3.037 5.009 2.741 8.214l-1.115.28c.283-3.067-.623-5.781-2.623-7.862-2.001-2.08-5.025-3.451-8.758-3.972-3.734-.52-8.041-.17-12.479 1.013-4.437 1.183-8.842 3.157-12.761 5.718l-.526-.509Z" fill="#000" stroke="#000" stroke-width=".521" mask="url(#a)"/><mask id="b" fill="#fff"><path d="M187.9 111.901c4.014-2.794 7.651-6.289 10.534-10.124 2.883-3.836 4.908-7.872 5.865-11.692.957-3.82.812-7.286-.42-10.039s-3.507-4.692-6.59-5.619l-.677.93c2.95.886 5.127 2.743 6.306 5.377 1.18 2.635 1.319 5.952.403 9.608-.917 3.656-2.855 7.52-5.614 11.19-2.759 3.671-6.24 7.016-10.082 9.69l.275.679Z"/></mask><path d="M187.9 111.901c4.014-2.794 7.651-6.289 10.534-10.124 2.883-3.836 4.908-7.872 5.865-11.692.957-3.82.812-7.286-.42-10.039s-3.507-4.692-6.59-5.619l-.677.93c2.95.886 5.127 2.743 6.306 5.377 1.18 2.635 1.319 5.952.403 9.608-.917 3.656-2.855 7.52-5.614 11.19-2.759 3.671-6.24 7.016-10.082 9.69l.275.679Z" fill="#000" stroke="#000" stroke-width=".521" mask="url(#b)"/><path d="M322.653 143.694c0-12.971 1.946-24.274 5.837-33.909 4.077-9.82 9.357-17.973 15.843-24.458 6.485-6.485 13.896-11.396 22.234-14.73 8.524-3.336 17.233-5.004 26.127-5.004 20.752 0 37.15 6.393 49.194 19.178 12.044 12.6 18.066 31.221 18.066 55.865 0 2.409-.092 5.096-.278 8.06a447.31 447.31 0 0 1-.556 7.505h-93.942c.926 8.523 4.91 15.286 11.951 20.289 7.041 5.003 16.491 7.504 28.35 7.504 7.597 0 15.008-.648 22.235-1.945 7.411-1.483 13.433-3.243 18.065-5.281l5.559 33.63c-2.223 1.112-5.188 2.224-8.894 3.336-3.706 1.111-7.875 2.038-12.507 2.779-4.447.926-9.264 1.668-14.453 2.223-5.188.556-10.376.834-15.564.834-13.156 0-24.644-1.945-34.464-5.836-9.635-3.891-17.696-9.172-24.181-15.843-6.3-6.856-11.025-14.916-14.175-24.18-2.964-9.265-4.447-19.271-4.447-30.017Zm97.278-15.843a38.815 38.815 0 0 0-1.945-10.284c-.927-3.335-2.502-6.299-4.725-8.894-2.038-2.594-4.725-4.724-8.06-6.392-3.15-1.668-7.134-2.502-11.952-2.502-4.632 0-8.616.834-11.951 2.502-3.335 1.482-6.114 3.52-8.338 6.115-2.223 2.594-3.984 5.651-5.281 9.171a64.074 64.074 0 0 0-2.501 10.284h54.753Z" fill="#084EE8"/><path d="M321.369 76.943c0 7.04-1.39 13.804-4.169 20.289-2.779 6.485-6.392 12.785-10.839 18.9-4.447 5.929-9.45 11.673-15.009 17.232a640.158 640.158 0 0 1-16.398 15.842 372.627 372.627 0 0 0-9.172 8.894 227.9 227.9 0 0 0-9.172 9.728 279.558 279.558 0 0 0-8.06 9.45c-2.224 2.779-3.613 5.095-4.169 6.948h82.825v34.742H198.799c-.371-2.038-.556-4.632-.556-7.782v-6.67c0-8.894 1.39-17.047 4.169-24.459 2.965-7.411 6.763-14.267 11.396-20.567a131.27 131.27 0 0 1 15.564-18.066 1527.573 1527.573 0 0 0 17.51-16.676c4.447-4.262 8.616-8.246 12.507-11.951 3.891-3.892 7.319-7.597 10.284-11.118 2.965-3.706 5.281-7.319 6.948-10.84 1.668-3.705 2.502-7.411 2.502-11.117 0-8.153-2.316-13.897-6.949-17.232-4.632-3.335-10.376-5.003-17.232-5.003-5.003 0-9.728.834-14.175 2.502-4.261 1.482-8.245 3.335-11.951 5.558-3.52 2.038-6.578 4.17-9.172 6.393-2.594 2.038-4.539 3.706-5.836 5.003L193.24 48.037c8.153-7.597 17.603-13.804 28.35-18.622 10.932-5.002 22.605-7.504 35.02-7.504 11.303 0 21.03 1.297 29.183 3.891 8.153 2.594 14.824 6.3 20.012 11.118 5.373 4.632 9.264 10.376 11.673 17.232 2.594 6.67 3.891 14.267 3.891 22.79ZM506.335 141.47c0 12.785 2.872 23.069 8.616 30.851s14.268 11.673 25.571 11.673a175.3 175.3 0 0 0 10.283-.278c3.15-.37 5.744-.741 7.782-1.111v-75.321c-2.594-1.668-6.022-3.058-10.283-4.169a47.318 47.318 0 0 0-12.507-1.668c-19.641 0-29.462 13.341-29.462 40.023ZM600 210.954c-3.706 1.112-7.968 2.224-12.785 3.335a292.46 292.46 0 0 1-15.287 2.502 215.02 215.02 0 0 1-16.12 1.667c-5.373.556-10.562.834-15.564.834-12.044 0-22.791-1.76-32.241-5.281-9.45-3.52-17.417-8.523-23.903-15.008-6.485-6.671-11.488-14.638-15.008-23.903-3.336-9.45-5.003-20.011-5.003-31.685 0-11.858 1.482-22.512 4.447-31.962 2.965-9.635 7.226-17.788 12.785-24.459 5.559-6.67 12.322-11.766 20.289-15.286 8.153-3.52 17.418-5.281 27.794-5.281 5.744 0 10.84.556 15.287 1.667 4.632 1.112 9.264 2.687 13.896 4.726V6.67L600 0v210.954Z" fill="#084EE8"/><path fill-rule="evenodd" clip-rule="evenodd" d="M122.532 26.068A98.268 98.268 0 0 1 179.73 66.34L71.678 139.222l107.971 37.135a98.265 98.265 0 1 1-57.117-150.289Zm-23.79 39.228a32.889 32.889 0 0 1 9.271 8.874L81.07 93.038l-26.944 18.866a32.899 32.899 0 0 1-5.449-24.578 32.892 32.892 0 0 1 50.065-22.03Z" fill="#084EE8"/></svg>